<?xml version="1.0" encoding="UTF-8" standalone="no"?>
<svg
   xmlns:dc="http://purl.org/dc/elements/1.1/"
   xmlns:cc="http://creativecommons.org/ns#"
   xmlns:rdf="http://www.w3.org/1999/02/22-rdf-syntax-ns#"
   xmlns:svg="http://www.w3.org/2000/svg"
   xmlns="http://www.w3.org/2000/svg"
   xmlns:sodipodi="http://sodipodi.sourceforge.net/DTD/sodipodi-0.dtd"
   xmlns:inkscape="http://www.inkscape.org/namespaces/inkscape"
   width="15"
   height="15"
   viewBox="0 0 15 15"
   fill="none"
   version="1.1"
   id="svg1471"
   sodipodi:docname="instagram-blue.svg"
   inkscape:version="1.0.1 (3bc2e813f5, 2020-09-07)">
  <metadata
     id="metadata1477">
    <rdf:RDF>
      <cc:Work
         rdf:about="">
        <dc:format>image/svg+xml</dc:format>
        <dc:type
           rdf:resource="http://purl.org/dc/dcmitype/StillImage" />
        <dc:title></dc:title>
      </cc:Work>
    </rdf:RDF>
  </metadata>
  <defs
     id="defs1475" />
  <sodipodi:namedview
     pagecolor="#ffffff"
     bordercolor="#666666"
     borderopacity="1"
     objecttolerance="10"
     gridtolerance="10"
     guidetolerance="10"
     inkscape:pageopacity="0"
     inkscape:pageshadow="2"
     inkscape:window-width="1920"
     inkscape:window-height="1001"
     id="namedview1473"
     showgrid="false"
     inkscape:zoom="55.333333"
     inkscape:cx="4.0210843"
     inkscape:cy="7.5"
     inkscape:window-x="1691"
     inkscape:window-y="-9"
     inkscape:window-maximized="1"
     inkscape:current-layer="svg1471" />
  <path
     fill-rule="evenodd"
     clip-rule="evenodd"
     d="M4.6875 0H10.3125C12.9009 0 15 2.09906 15 4.6875V10.3125C15 12.9009 12.9009 15 10.3125 15H4.6875C2.09906 15 0 12.9009 0 10.3125V4.6875C0 2.09906 2.09906 0 4.6875 0ZM10.3125 13.5938C12.1219 13.5938 13.5938 12.1219 13.5938 10.3125V4.6875C13.5938 2.87812 12.1219 1.40625 10.3125 1.40625H4.6875C2.87812 1.40625 1.40625 2.87812 1.40625 4.6875V10.3125C1.40625 12.1219 2.87812 13.5938 4.6875 13.5938H10.3125Z"
     fill="black"
     id="path1465"
     style="fill:#4a4ff2;fill-opacity:1" />
  <path
     fill-rule="evenodd"
     clip-rule="evenodd"
     d="M3.75854 7.51709C3.75854 5.44143 5.44143 3.75854 7.51709 3.75854C9.59274 3.75854 11.2756 5.44143 11.2756 7.51709C11.2756 9.59274 9.59274 11.2756 7.51709 11.2756C5.44143 11.2756 3.75854 9.59274 3.75854 7.51709ZM5.168 7.51709C5.168 8.8119 6.22227 9.86618 7.51709 9.86618C8.8119 9.86618 9.86618 8.8119 9.86618 7.51709C9.86618 6.22133 8.8119 5.168 7.51709 5.168C6.22227 5.168 5.168 6.22133 5.168 7.51709Z"
     fill="black"
     id="path1467"
     style="fill:#4a4ff2;fill-opacity:1" />
  <path
     fill-rule="evenodd"
     clip-rule="evenodd"
     d="M11.5318 3.96354C11.8054 3.96354 12.0273 3.74173 12.0273 3.4681C12.0273 3.19447 11.8054 2.97266 11.5318 2.97266C11.2582 2.97266 11.0364 3.19447 11.0364 3.4681C11.0364 3.74173 11.2582 3.96354 11.5318 3.96354Z"
     fill="black"
     id="path1469"
     style="fill:#4a4ff2;fill-opacity:1" />
</svg>
